<svg width="18" height="20" viewBox="0 0 18 20" fill="none" xmlns="http://www.w3.org/2000/svg">
<path d="M1 6.23168C1.5757 12.1497 2.4133 15.0286 5 19.2317H7M1 6.23168H5M1 6.23168L5 1.23168C6.65971 -0.198322 6 2.23169 9.25 1.23168C12.5 0.231676 13.5 1.23168 13.5 1.23168L17 6.23168M17 6.23168C16.7327 12.3711 15.9789 15.2295 13.5 19.2317H10.25M17 6.23168H11M5 6.23168C7.63225 11.0242 8.0369 13.8753 7 19.2317M5 6.23168H11M7 19.2317H10.25M10.25 19.2317C11.8349 14.1618 12.0262 11.3149 11 6.23168" stroke="#EB5757"/>
</svg>
